# xmcd
#
# Track frame offsets: 
#        150
#        29888
#        45765
#        74823
#        90544
#        106741
#        135206
#        162525
#        180036
#        218879
#        237751
#
# Disc length: 3456 seconds
#
# Revision: 2
# Processed by: cddbd v1.5.2PL0 Copyright (c) Steve Scherf et al.
# Submitted via: ExactAudioCopy v1.0b3
#
DISCID=8a0d7e0b
DTITLE=Bar-Kays - The Best Of - Millennium Collection
DYEAR=2005
DGENRE=Soul
TTITLE0=Freakshow On The Dancefloor
TTITLE1=Shake Your Rump To The Funk
TTITLE2=Too Hot To Stop
TTITLE3=Attitudes
TTITLE4=Shine
TTITLE5=Move Your Boogie Body
TTITLE6=Let's Have Some Fun
TTITLE7=Hit And Run
TTITLE8=She Talks To Me With Her Body
TTITLE9=Do It
TTITLE10=Running In And Out Of My Life
EXTD=
EXTT0=
EXTT1=
EXTT2=
EXTT3=
EXTT4=
EXTT5=
EXTT6=
EXTT7=
EXTT8=
EXTT9=
EXTT10=
PLAYORDER=
